PathFileType	4	(X/Y/Z)	23_coords_data.trc
DataRate	CameraRate	NumFrames	NumMarkers	Units	OrigDataRate	OrigDataStartFrame	OrigNumFrames
30.0	30.0	8	21	m	30.0	41	71
Frame#	Time	THUMB_TIP	THUMB_IP	THUMB_MCP	THUMB_CMC	INDEX_TIP	INDEX_DIP	INDEX_PIP	INDEX_MCP	MIDDLE_TIP	MIDDLE_DIP	MIDDLE_PIP	MIDDLE_MCP	RING_TIP	RING_DIP	RING_PIP	RING_MCP	PINKY_TIP	PINKY_DIP	PINKY_PIP	PINKY_MCP	WRIST
X1	Y1	Z1	X2	Y2	Z2	X3	Y3	Z3	X4	Y4	Z4	X5	Y5	Z5	X6	Y6	Z6	X7	Y7	Z7	X8	Y8	Z8	X9	Y9	Z9	X10	Y10	Z10	X11	Y11	Z11	X12	Y12	Z12	X13	Y13	Z13	X14	Y14	Z14	X15	Y15	Z15	X16	Y16	Z16	X17	Y17	Z17	X18	Y18	Z18	X19	Y19	Z19	X20	Y20	Z20	X21	Y21	Z21
40	1.3333333333333333	0.017918100357055666	-0.002787519931793213	0.9347169799804688	-0.00594871997833252	0.00777676010131836	0.9465659790039063	-0.034209400177001956	0.016033599853515625	0.9606539916992187	-0.05769770050048828	0.03675410079956055	0.9747620239257813	0.043527999877929685	0.030844900131225587	0.87797998046875	0.022140399932861328	0.03027079963684082	0.8880360107421875	-0.0006034790277481071	0.030440999984741212	0.896531005859375	-0.03888949966430664	0.03257149887084961	0.9161370239257812	0.048993598937988284	0.06349050140380859	0.8882230224609375	0.02473419952392578	0.06134360122680664	0.8884210205078125	-0.005078400135040283	0.059888900756835936	0.8915189819335938	-0.04382939910888672	0.05622269821166992	0.9153270263671875	0.04128390121459961	0.08564469909667968	0.8935599975585937	0.01779330062866211	0.08379149627685546	0.8958189697265625	-0.009951029777526856	0.08140180206298828	0.9007490234375	-0.04451589965820312	0.07523670196533203	0.9224739990234375	0.010330400466918944	0.11508499908447266	0.8942009887695312	-0.004369329929351806	0.1077760009765625	0.9077249755859375	-0.018714599609375	0.10073899841308594	0.9187509765625	-0.04176620101928711	0.08980370330810547	0.9355889892578125	-0.09430940246582031	0.05332820129394531	0.98735400390625
41	1.3666666666666667	0.014224200248718262	-0.006690499782562256	0.9296069946289063	-0.008280380249023438	0.005311369895935059	0.9430599975585937	-0.03529520034790039	0.015311699867248535	0.9589739990234375	-0.058546798706054684	0.036518798828125	0.9740789794921875	0.042149799346923825	0.03229790115356445	0.8751649780273437	0.021135200500488283	0.03163159942626953	0.8858519897460938	-0.001224179983139038	0.031758100509643554	0.8951859741210938	-0.038897598266601566	0.03383810043334961	0.9161649780273438	0.04612459945678711	0.06580829620361328	0.8775980224609375	0.022215599060058593	0.06301020050048828	0.882052001953125	-0.006665229797363281	0.06094200134277344	0.8890269775390625	-0.04390399932861328	0.057194599151611326	0.91531298828125	0.037927200317382816	0.08884690093994141	0.8842490234375	0.01493690013885498	0.08588849639892578	0.890333984375	-0.011791899681091308	0.08253140258789063	0.8985969848632812	-0.04458779907226563	0.07610140228271485	0.9225919799804687	0.009642539978027343	0.115322998046875	0.8929089965820313	-0.004950079917907715	0.10835099792480468	0.9067750244140625	-0.018954900741577147	0.10141600036621094	0.9179829711914063	-0.04155839920043945	0.09072699737548828	0.935530029296875	-0.09392479705810547	0.054184200286865235	0.987322021484375
42	1.4	0.01145580005645752	-0.008008959770202637	0.9258359985351563	-0.010028499603271485	0.004686200141906739	0.9404199829101563	-0.03616469955444336	0.015184399604797363	0.9571300048828125	-0.058638900756835935	0.03692890167236328	0.9736370239257812	0.04010380172729492	0.033819400787353515	0.8714099731445313	0.01956130027770996	0.03300189971923828	0.8829990234375	-0.0023292698860168447	0.03306159973144531	0.8934439697265625	-0.03914979934692383	0.03496390151977539	0.91589697265625	0.04346929931640625	0.06788529968261718	0.8720900268554688	0.020131000518798826	0.06460099792480468	0.8784520263671876	-0.00838621997833252	0.06220130157470703	0.8874819946289062	-0.0443489990234375	0.058302501678466796	0.9150040283203125	0.035326400756835935	0.09052259826660156	0.8794439697265625	0.012708999633789063	0.08716290283203125	0.8871900024414062	-0.013334600448608399	0.08352179718017579	0.8969910278320312	-0.04497869873046875	0.07713539886474609	0.9222239990234375	0.00798882007598877	0.11615699768066406	0.8910189819335937	-0.006316380023956299	0.10933200073242187	0.9052459716796875	-0.019962499618530274	0.10251699829101563	0.9168709716796875	-0.04202790069580078	0.09190260314941406	0.9351010131835937	-0.09397679901123047	0.05481439971923828	0.9873369750976563
43	1.4333333333333333	0.008344449996948243	-0.007903769969940185	0.9206229858398437	-0.011759699821472168	0.005184760093688965	0.936739990234375	-0.036309898376464846	0.015902700424194335	0.9552100219726563	-0.05836750030517578	0.037605701446533205	0.9731640014648437	0.03770050048828125	0.036601200103759765	0.8672730102539062	0.0176653995513916	0.0354984016418457	0.8798359985351563	-0.003694930076599121	0.035162399291992184	0.8913179931640625	-0.03940069961547851	0.0363754997253418	0.91539697265625	0.03858369827270508	0.07093730163574219	0.8634990234375	0.01578380012512207	0.0669823989868164	0.8729299926757812	-0.011453100204467773	0.06397840118408203	0.8845980224609375	-0.04506000137329102	0.05956480026245117	0.914905029296875	0.03093149948120117	0.0926697006225586	0.8728939819335938	0.0090423002243042	0.08894550323486328	0.8829970092773437	-0.01579640007019043	0.08482430267333985	0.8950029907226562	-0.045493301391601564	0.07834809875488281	0.92210400390625	0.005661459922790527	0.11738800048828125	0.8890880126953125	-0.008103090286254883	0.11056199645996094	0.90377001953125	-0.02128580093383789	0.1037770004272461	0.915947998046875	-0.04265719985961914	0.09325070190429688	0.9350800170898438	-0.093989501953125	0.0556708984375	0.98822998046875
44	1.4666666666666666	0.004363780021667481	-0.0073118600845336916	0.91410302734375	-0.014297800064086914	0.0059423699378967285	0.93197998046875	-0.03726969909667969	0.016767900466918947	0.9524320068359375	-0.05798400115966797	0.03852339935302734	0.9721920166015625	0.03347620010375976	0.03936439895629883	0.8615709838867187	0.014206500053405761	0.03792729949951172	0.8753729858398438	-0.006370090007781983	0.0372864990234375	0.8881309814453126	-0.04048040008544922	0.0379271011352539	0.9141690063476563	0.0331890983581543	0.07351260375976562	0.85685400390625	0.011366600036621094	0.0691802978515625	0.8680599975585938	-0.014776700019836426	0.065814697265625	0.8817219848632812	-0.04634159851074219	0.06115859985351563	0.9138809814453125	0.02585890007019043	0.09554380035400391	0.8668889770507813	0.004711339950561524	0.09141239929199219	0.87868798828125	-0.019025699615478515	0.08675270080566407	0.8924609985351563	-0.04679520034790039	0.07970580291748047	0.921114990234375	0.0017535899877548211	0.1194219970703125	0.8856430053710938	-0.011091699600219726	0.11238400268554688	0.9011790161132812	-0.023656400680541992	0.10545200347900391	0.9139810180664063	-0.043591201782226564	0.09477770233154297	0.9340479736328124	-0.09303040313720704	0.056276199340820315	0.9881069946289063
45	1.5	0.001537600040435791	-0.00539822006225586	0.90952099609375	-0.01632699966430664	0.0075219497680664065	0.9285139770507812	-0.03843970108032226	0.018138900756835937	0.9504019775390625	-0.0584182014465332	0.039527301788330076	0.9710689697265625	0.030784599304199217	0.041947799682617186	0.8589080200195313	0.011651300430297851	0.04026219940185547	0.8727579956054687	-0.008905750274658203	0.03941049957275391	0.8856110229492188	-0.04228120040893555	0.03949499893188477	0.9124970092773438	0.030433099746704103	0.07584210205078125	0.8547069702148438	0.008678350448608398	0.07147979736328125	0.8659000244140626	-0.017272499084472655	0.06791699981689453	0.8797639770507812	-0.04803850173950195	0.06278630065917969	0.9125139770507813	0.023530099868774416	0.09748930358886719	0.8654979858398437	0.002570489883422851	0.09339839935302735	0.8772490234375	-0.021069700241088868	0.08872129821777344	0.8911270141601563	-0.04814530181884766	0.08130919647216797	0.9200809936523437	-0.000521059989929199	0.12225599670410156	0.8844650268554688	-0.013244400024414063	0.11467600250244141	0.899947998046875	-0.02533930015563965	0.10733399963378906	0.9128270263671875	-0.044636299133300784	0.09596869659423828	0.933218017578125	-0.09307710266113281	0.0571599006652832	0.98772998046875
46	1.5333333333333334	9.359969757497e-06	-0.00115093994140625	0.9047109985351562	-0.017562799453735352	0.010725799560546876	0.9249400024414063	-0.03906760025024414	0.020012500762939454	0.9479409790039063	-0.058635501861572265	0.04048529815673828	0.9697440185546875	0.029525800704956053	0.04625709915161133	0.8584990234375	0.009666560173034668	0.04402880096435547	0.8712210083007812	-0.011357099533081054	0.04267010116577148	0.8832839965820313	-0.044501598358154294	0.04175510025024414	0.9103619995117187	0.029330499649047853	0.07963919830322265	0.8555609741210938	0.0072152199745178225	0.07504499816894532	0.8657119750976563	-0.01909860038757324	0.07128759765625	0.8787109985351562	-0.0500348014831543	0.0650052032470703	0.911239013671875	0.022593299865722657	0.1004739990234375	0.865989013671875	0.0014193500280380248	0.09628739929199219	0.877260986328125	-0.022618900299072264	0.09145619964599609	0.8905609741210937	-0.050005401611328125	0.08323999786376954	0.9194530029296875	-0.001162230014801025	0.12433100128173828	0.8847880249023438	-0.014164899826049805	0.11666699981689453	0.8998939819335937	-0.026578800201416015	0.1092239990234375	0.9125	-0.04596789932250977	0.09765249633789062	0.932947998046875	-0.09276750183105469	0.057887401580810544	0.9872839965820313
47	1.5666666666666667	-0.0017504299879074093	0.005870490074157715	0.898281982421875	-0.018770599365234376	0.01566359996795654	0.9199660034179687	-0.03912160110473633	0.022893899917602538	0.9448150024414063	-0.05794609832763672	0.04180730056762695	0.9682949829101563	0.028376300811767577	0.0523739013671875	0.858656005859375	0.007551889896392822	0.049355201721191407	0.8697659912109375	-0.014077199935913085	0.047236801147460934	0.8807509765625	-0.046985401153564456	0.044720199584960936	0.9084310302734375	0.027571399688720702	0.08495800018310547	0.8563179931640625	0.00519773006439209	0.0799928970336914	0.8655130004882813	-0.02163360023498535	0.07566339874267577	0.8776740112304687	-0.05245600128173828	0.0679073028564453	0.90972802734375	0.02068400001525879	0.10454900360107422	0.8663939819335937	-0.00055144202709198	0.10009700012207032	0.8770189819335937	-0.024919200897216796	0.09498609924316406	0.8899669799804687	-0.05234199905395508	0.0858469009399414	0.9186430053710938	-0.002999900102615356	0.12756800079345704	0.8848839721679688	-0.016043100357055664	0.11965499877929688	0.899676025390625	-0.028831899642944334	0.11193000030517578	0.9122520141601562	-0.04811059951782227	0.09975340270996094	0.9323389892578124	-0.09180059814453125	0.05858509826660156	0.9873809814453125
